<svg xmlns="http://www.w3.org/2000/svg" viewBox="0 0 512 512">
  <!-- VideoKidnapper mark: balaclava head. Eye holes and mouth are true
       cutouts (fill-rule evenodd) so the mark works on any background.
       Single-color: recolor by changing the fill. -->
  <path fill="#2860D0" fill-rule="evenodd" d="
    M 152 430
    C 140 384 132 330 132 276
    C 132 150 190 96 256 96
    C 322 96 380 150 380 276
    C 380 330 372 384 360 430
    C 320 446 192 446 152 430 Z
    M 247.5 269.2 A 52 27 8 0 1 144.5 254.8 A 52 27 8 0 1 247.5 269.2 Z
    M 367.5 254.8 A 52 27 -8 0 1 264.5 269.2 A 52 27 -8 0 1 367.5 254.8 Z
    M 286 362 A 30 20 0 0 1 226 362 A 30 20 0 0 1 286 362 Z
  "/>
</svg>
